<?xml version="1.0" encoding="UTF-8" standalone="no"?>
<svg width="128" height="128" viewBox="0 0 128 128" xmlns="http://www.w3.org/2000/svg">
    <!-- Background with gradient -->
    <defs>
        <linearGradient id="bgGradient" x1="0%" y1="0%" x2="100%" y2="100%">
            <stop offset="0%" stop-color="#2D3E50" />
            <stop offset="100%" stop-color="#1A2634" />
        </linearGradient>
        <filter id="shadow" x="-20%" y="-20%" width="140%" height="140%">
            <feGaussianBlur in="SourceAlpha" stdDeviation="3" />
            <feOffset dx="0" dy="2" result="offsetblur" />
            <feComponentTransfer>
                <feFuncA type="linear" slope="0.3" />
            </feComponentTransfer>
            <feMerge>
                <feMergeNode />
                <feMergeNode in="SourceGraphic" />
            </feMerge>
        </filter>
    </defs>

    <!-- Main background -->
    <circle cx="64" cy="64" r="60" fill="url(#bgGradient)" />

    <!-- Webhook Sender concept -->
    <g filter="url(#shadow)">
        <!-- Central Hub - representing the webhook sender -->
        <circle cx="64" cy="64" r="22" fill="#3498DB" />

        <!-- Outgoing webhook paths -->
        <path d="M64 42 L64 20" stroke="#E74C3C" stroke-width="5" stroke-linecap="round" />
        <path d="M84 54 L103 40" stroke="#2ECC71" stroke-width="5" stroke-linecap="round" />
        <path d="M84 74 L103 88" stroke="#F39C12" stroke-width="5" stroke-linecap="round" />
        <path d="M64 86 L64 108" stroke="#9B59B6" stroke-width="5" stroke-linecap="round" />
        <path d="M44 74 L25 88" stroke="#1ABC9C" stroke-width="5" stroke-linecap="round" />
        <path d="M44 54 L25 40" stroke="#E67E22" stroke-width="5" stroke-linecap="round" />

        <!-- Endpoints -->
        <circle cx="64" cy="20" r="6" fill="#E74C3C" />
        <circle cx="103" cy="40" r="6" fill="#2ECC71" />
        <circle cx="103" cy="88" r="6" fill="#F39C12" />
        <circle cx="64" cy="108" r="6" fill="#9B59B6" />
        <circle cx="25" cy="88" r="6" fill="#1ABC9C" />
        <circle cx="25" cy="40" r="6" fill="#E67E22" />

        <!-- Sending animation symbols -->
        <g fill="white">
            <circle cx="64" cy="32" r="2" />
            <circle cx="91" cy="48" r="2" />
            <circle cx="91" cy="80" r="2" />
            <circle cx="64" cy="96" r="2" />
            <circle cx="37" cy="80" r="2" />
            <circle cx="37" cy="48" r="2" />
        </g>

        <!-- Center symbol - representing data processing -->
        <g fill="white">
            <rect x="58" y="58" width="12" height="12" rx="2" />
            <path d="M61 62 L69 62 M61 66 L69 66" stroke="#2D3E50" stroke-width="1.5"
                stroke-linecap="round" />
        </g>
    </g>

    <!-- Subtle highlights -->
    <path d="M32 64 A32 32 0 0 1 96 64" fill="none" stroke="white" stroke-width="1"
        stroke-opacity="0.1" />
</svg> 
